<svg width="20" height="20" viewBox="0 0 20 20" fill="none" xmlns="http://www.w3.org/2000/svg">
<path d="M13.8395 0C15.4512 0 16.8563 1.09633 17.2482 2.65964L17.6647 4.32507H18.6519C19.0624 4.32507 19.4017 4.63015 19.4555 5.02598L19.4628 5.13602C19.4628 5.54658 19.1577 5.88587 18.7619 5.93957L18.6519 5.94698H18.0723L18.2972 6.84064C18.9987 7.26751 19.4673 8.03923 19.4673 8.92046V18.1078C19.4673 19.1528 18.6201 20 17.575 20H15.9487C14.9037 20 14.0565 19.1528 14.0565 18.1078L14.0554 16.7597H5.41067L5.41075 18.1078C5.41075 19.1528 4.56358 20 3.51853 20H1.89222C0.847174 20 0 19.1528 0 18.1078V8.92046C0 8.03944 0.468362 7.26772 1.16968 6.84082L1.39375 5.94698H0.810951C0.400394 5.94698 0.0611025 5.6419 0.00740669 5.24606L0 5.13602C0 4.72547 0.30508 4.38618 0.700911 4.33248L0.810951 4.32507H1.79815L2.2155 2.66182C2.60659 1.09745 4.01217 0 5.62469 0H13.8395ZM3.78876 16.7597H1.62082L1.6219 18.1078C1.6219 18.257 1.74293 18.3781 1.89222 18.3781H3.51853C3.66782 18.3781 3.78885 18.257 3.78885 18.1078L3.78876 16.7597ZM17.8452 16.7597H15.6773L15.6784 18.1078C15.6784 18.257 15.7994 18.3781 15.9487 18.3781H17.575C17.7244 18.3781 17.8454 18.257 17.8454 18.1078L17.8452 16.7597ZM17.0344 8.10951H2.43285C1.98498 8.10951 1.6219 8.4726 1.6219 8.92046V15.1378H17.8454V8.92046C17.8454 8.4726 17.4823 8.10951 17.0344 8.10951ZM7.83811 11.894H11.6244C12.0724 11.894 12.4353 12.257 12.4353 12.7049C12.4353 13.1155 12.1303 13.4548 11.7345 13.5085L11.6244 13.5159H7.83811C7.39023 13.5159 7.02715 13.1528 7.02715 12.7049C7.02715 12.2943 7.33224 11.955 7.72804 11.9013L7.83811 11.894ZM15.1378 9.73141C15.7348 9.73141 16.2189 10.2155 16.2189 10.8127C16.2189 11.4098 15.7348 11.8938 15.1378 11.8938C14.5406 11.8938 14.0565 11.4098 14.0565 10.8127C14.0565 10.2155 14.5406 9.73141 15.1378 9.73141ZM4.32504 9.73141C4.9222 9.73141 5.40629 10.2155 5.40629 10.8127C5.40629 11.4098 4.9222 11.8938 4.32504 11.8938C3.72789 11.8938 3.2438 11.4098 3.2438 10.8127C3.2438 10.2155 3.72789 9.73141 4.32504 9.73141ZM13.8395 1.6219H5.62469C4.75641 1.6219 3.99956 2.21284 3.78897 3.05519L2.93086 6.48761H16.5357L15.6749 3.05402C15.464 2.21223 14.7073 1.6219 13.8395 1.6219Z" fill="#212121"/>
</svg>
