<svg width="20" height="20" viewBox="0 0 20 20" fill="none" xmlns="http://www.w3.org/2000/svg">
<path d="M15.8868 0C17.6921 0 19.1673 1.41283 19.2669 3.1932L19.2723 3.38531L19.2717 15.8893C19.2715 17.7589 17.7558 19.2746 15.8861 19.2746H3.38548C1.58022 19.2746 0.104955 17.8618 0.0053592 16.0814L0 15.8893L0.0006256 3.38533C0.000843225 1.51571 1.51648 0 3.38609 0H15.8868ZM8.85417 7.29167L1.5625 7.29271L1.56261 15.8892L1.57008 16.0567C1.65457 16.985 2.43506 17.7121 3.38542 17.7121L8.85417 17.7115V7.29167ZM17.7083 13.5417L10.4167 13.5427V17.7115L15.8861 17.7121C16.8929 17.7121 17.7091 16.8959 17.7092 15.8892L17.7083 13.5417ZM15.8869 1.5625L10.4167 1.56146V11.9802L17.7083 11.9792L17.7097 3.38538L17.7022 3.21796C17.6177 2.28963 16.8372 1.5625 15.8869 1.5625ZM8.85417 1.56146L3.38618 1.5625L3.2367 1.56855C2.29985 1.64467 1.56324 2.42906 1.56313 3.38545L1.5625 5.73021L8.85417 5.72917V1.56146Z" fill="#212121"/>
</svg>
