<svg width="18" height="20" viewBox="0 0 18 20" fill="none" xmlns="http://www.w3.org/2000/svg">
<path d="M8.93353 0C13.0494 0 16.4001 3.27588 16.5206 7.36254L16.5239 7.5904L16.5237 11.708L17.7862 14.9616C17.8203 15.0495 17.8433 15.1411 17.8549 15.2343L17.8636 15.375C17.8636 15.9667 17.4139 16.4534 16.8376 16.512L16.7207 16.5179L12.0598 16.5188C12.0598 18.2454 10.6601 19.6451 8.93353 19.6451C7.26449 19.6451 5.90094 18.3372 5.81189 16.6903L5.80714 16.517L1.14316 16.5179C1.00146 16.5179 0.860994 16.4915 0.728927 16.4401C0.177431 16.2257 -0.113169 15.6301 0.041167 15.0718L0.0780214 14.9608L1.34246 11.7071L1.34314 7.5904C1.34314 3.39834 4.74147 0 8.93353 0ZM10.7156 16.6522L10.7196 16.517L7.14655 16.5188C7.14655 17.5057 7.94661 18.3058 8.93353 18.3058C9.8756 18.3058 10.6474 17.5768 10.7156 16.6522ZM8.93353 1.33929C5.55306 1.33929 2.79932 4.0226 2.68605 7.37549L2.68242 7.5904V11.8334C2.68242 11.8887 2.67556 11.9437 2.66207 11.9972L2.63689 12.0761L1.42996 15.1777H16.4335L15.23 12.0756C15.21 12.0241 15.1965 11.9704 15.1897 11.9158L15.1846 11.8334V7.5904C15.1846 4.138 12.3859 1.33929 8.93353 1.33929Z" fill="#212121"/>
</svg>
