<svg width="17" height="21" viewBox="0 0 17 21" fill="none" xmlns="http://www.w3.org/2000/svg">
<path d="M14.5689 12.6C15.7645 12.6 16.741 13.5402 16.7974 14.7224L16.8 14.8306V15.225C16.8 17.1966 15.7806 18.6726 14.2169 19.6246C12.6792 20.5607 10.6123 21 8.4 21C6.1877 21 4.12078 20.5607 2.58311 19.6246C1.06676 18.7015 0.0622801 17.2856 0.00279479 15.4029L0 15.225V14.8307C0 13.6344 0.941299 12.6589 2.12312 12.6026L2.2312 12.6H14.5689ZM14.5689 13.9125H2.2312C1.74896 13.9125 1.35385 14.2835 1.31554 14.7554L1.3125 14.8307V15.225C1.3125 16.6658 2.0266 17.7493 3.2656 18.5035C4.53059 19.2736 6.33554 19.6875 8.4 19.6875C10.4645 19.6875 12.2694 19.2736 13.5344 18.5035C14.7291 17.7762 15.4358 16.7428 15.4848 15.378L15.4875 15.225V14.8306C15.4875 14.3489 15.1166 13.9538 14.6442 13.9155L14.5689 13.9125ZM8.4 0C11.2995 0 13.65 2.3505 13.65 5.25C13.65 8.14947 11.2995 10.5 8.4 10.5C5.50053 10.5 3.15 8.14947 3.15 5.25C3.15 2.3505 5.50053 0 8.4 0ZM8.4 1.3125C6.2254 1.3125 4.4625 3.07538 4.4625 5.25C4.4625 7.4246 6.2254 9.1875 8.4 9.1875C10.5746 9.1875 12.3375 7.4246 12.3375 5.25C12.3375 3.07538 10.5746 1.3125 8.4 1.3125Z" fill="#212121"/>
</svg>
